<?xml version="1.0" encoding="UTF-8"?>
<svg width="35px" height="35px" viewBox="0 0 35 35" version="1.1" xmlns="http://www.w3.org/2000/svg" xmlns:xlink="http://www.w3.org/1999/xlink">
    <!-- Generator: Sketch 59.1 (86144) - https://sketch.com -->
    <title>skin-concern2-icon</title>
    <desc>Created with Sketch.</desc>
    <g id="Quiz3" stroke="none" stroke-width="1" fill="none" fill-rule="evenodd">
        <g id="1-2-2-skin-multiple-choice" transform="translate(-544.000000, -116.000000)" fill="#95D0BC">
            <g id="skin-concern2-icon" transform="translate(544.000000, 116.000000)">
                <circle id="Oval" opacity="0.203683036" cx="17.5" cy="17.5" r="17.5"></circle>
                <g id="skin-icon" transform="translate(6.000000, 11.000000)">
                    <polygon id="Path-14" fill-rule="nonzero" points="0 1.2 21.8571429 1.2 21.8571429 0 0 0"></polygon>
                    <path d="M0,5.14285714 C0.930674089,5.14285714 1.28571429,5.49789734 1.28571429,6.42857143 C1.28571429,7.66329351 2.14250659,8.75844157 3.26252571,8.98701689 C4.53488073,9.24668118 5.65628285,8.3566795 6.14761973,6.60190495 C6.47833689,5.42077224 6.91383777,5.034233 7.33375899,5.12754882 C7.78855649,5.22861494 8.30459854,5.83362975 8.5074204,6.5942117 C9.23212385,9.31184965 12.4304571,9.65949456 13.3443169,6.61329507 C13.9351934,4.64370658 14.9222472,4.64370658 15.7316936,6.66732258 C16.9357968,9.67758071 20.5714286,9.29886907 20.5714286,6.42857143 C20.5714286,5.49789734 20.9264688,5.14285714 21.8571429,5.14285714 L21.8571429,3.85714286 C20.2163884,3.85714286 19.2857143,4.78781695 19.2857143,6.42857143 C19.2857143,7.79041664 17.6344889,7.96241929 16.9254493,6.18982028 C15.6777528,3.07057913 13.0648066,3.07057913 12.112826,6.24384779 C11.5975129,7.96155807 10.1610531,7.80542114 9.74972246,6.26293115 C9.43352855,5.07720398 8.59146943,4.08996225 7.61266958,3.87245118 C6.40364488,3.60377902 5.40333353,4.49162933 4.90952313,6.25523791 C4.58443143,7.41627969 4.05493258,7.83651687 3.51961715,7.72726882 C3.00951127,7.62316558 2.57142857,7.06321025 2.57142857,6.42857143 C2.57142857,4.78781695 1.64075448,3.85714286 0,3.85714286 L0,5.14285714 Z" id="Path-15" fill-rule="nonzero"></path>
                    <circle id="Oval" cx="1.92857143" cy="11.2142857" r="1"></circle>
                    <circle id="Oval-Copy" cx="7.07142857" cy="15.3571429" r="1"></circle>
                    <circle id="Oval-Copy-2" cx="10.9285714" cy="11.2142857" r="1"></circle>
                    <circle id="Oval-Copy-3" cx="14.7857143" cy="15.3571429" r="1"></circle>
                    <circle id="Oval-Copy-4" cx="19.9285714" cy="11.2142857" r="1"></circle>
                </g>
            </g>
        </g>
    </g>
</svg>