<?xml version="1.0" encoding="UTF-8"?>
<svg width="35px" height="35px" viewBox="0 0 35 35" version="1.1" xmlns="http://www.w3.org/2000/svg" xmlns:xlink="http://www.w3.org/1999/xlink">
    <!-- Generator: Sketch 59.1 (86144) - https://sketch.com -->
    <title>formula-make-icon</title>
    <desc>Created with Sketch.</desc>
    <g id="Quiz3" stroke="none" stroke-width="1" fill="none" fill-rule="evenodd">
        <g id="1-3-4-phil-quiz-single-choice-copy" transform="translate(-544.000000, -78.000000)" fill="#7BC4AB">
            <g id="formula-make-icon" transform="translate(544.000000, 78.000000)">
                <circle id="Oval" opacity="0.203683036" cx="17.5" cy="17.5" r="17.5"></circle>
                <g id="research" transform="translate(6.000000, 6.000000)" fill-rule="nonzero" stroke="#DFEBE0" stroke-width="0.1">
                    <path d="M1.61764089,14.0398135 C1.40531451,13.2149325 1.29765625,12.3604171 1.29765625,11.5 C1.29765625,5.87435647 5.87435647,1.29765625 11.5,1.29765625 C14.0437005,1.29765625 16.5120349,2.2844764 18.3727324,4.13789062 L16.890625,4.13789062 C16.5461064,4.13789062 16.2667969,4.41720017 16.2667969,4.76171875 C16.2667969,5.10623733 16.5461064,5.38554687 16.890625,5.38554687 L19.5859375,5.38554687 C19.9304561,5.38554687 20.2097656,5.10623733 20.2097656,4.76171875 L20.2097656,2.06640625 C20.2097656,1.72188767 19.9304561,1.44257812 19.5859375,1.44257812 C19.2414189,1.44257812 18.9621094,1.72188767 18.9621094,2.06640625 L18.8796281,2.80156156 C16.805238,1.0290292 14.188861,0.05 11.5,0.05 C5.19556648,0.05 0.05,5.19569129 0.05,11.5 C0.05,12.4653591 0.170908284,13.4245183 0.409369083,14.3508123 C0.495245589,14.6844623 0.835432768,14.885351 1.16902573,14.7994262 C1.50265092,14.7135454 1.70351966,14.3734306 1.61764106,14.0398141 Z" id="Path"></path>
                    <path d="M22.075834,7.22296971 C21.9466015,6.90367254 21.5827668,6.74954999 21.2635243,6.87878604 C20.9441321,7.00804004 20.7900388,7.3717239 20.9193414,7.69109169 C21.4388288,8.97451257 21.7023438,10.2560481 21.7023438,11.5 C21.7023438,17.1256435 17.1256435,21.7023438 11.5,21.7023438 C8.32113906,21.7023438 5.29836297,20.1680881 3.41213086,17.5144531 L4.76171875,17.5144531 C5.10623733,17.5144531 5.38554688,17.2351436 5.38554688,16.890625 C5.38554688,16.5461064 5.10623733,16.2667969 4.76171875,16.2667969 L2.06640625,16.2667969 C1.72188767,16.2667969 1.44257813,16.5461064 1.44257813,16.890625 L1.44257813,19.5859375 C1.44257813,19.9304561 1.72188767,20.2097656 2.06640625,20.2097656 C2.41092483,20.2097656 2.69023438,19.9304561 2.69023438,19.5859375 L2.77852417,18.8508009 C4.98145384,21.4740894 8.1667687,22.95 11.5,22.95 C17.8044041,22.95 22.95,17.8042932 22.95,11.5 C22.95,10.095103 22.6559609,8.65612977 22.0758347,7.22297164 Z" id="Path"></path>
                    <path d="M8.18085938,15.5429688 C8.18085938,17.3730987 9.6698701,18.8621094 11.5,18.8621094 C13.3301299,18.8621094 14.8191406,17.3730987 14.8191406,15.5429688 L14.8691406,6.73320313 L15.5429688,6.73320313 C15.8874873,6.73320313 16.1667969,6.45389358 16.1667969,6.109375 C16.1667969,5.76485642 15.8874873,5.48554687 15.5429688,5.48554687 L7.45703125,5.48554687 C7.11251267,5.48554687 6.83320312,5.76485642 6.83320312,6.109375 C6.83320312,6.45389358 7.11251267,6.73320313 7.45703125,6.73320313 L8.18085938,6.78320312 L8.18085938,15.5429688 Z M11.5,17.6144531 C10.3577393,17.6144531 9.42851562,16.6852295 9.42851562,15.5429688 L9.47851562,10.7761719 L13.5714844,10.8261719 L13.5714844,15.5429688 C13.5714844,16.6852295 12.6422607,17.6144531 11.5,17.6144531 Z M13.5214844,6.73320313 L13.5714844,6.78320312 L13.5214844,9.52851563 L9.42851562,9.47851562 L9.47851562,6.73320313 L13.5214844,6.73320313 Z" id="Shape"></path>
                </g>
            </g>
        </g>
    </g>
</svg>